<?xml version="1.0" encoding="UTF-8"?>
<svg version="1.1" xmlns="http://www.w3.org/2000/svg" width="500" height="500">
<path d="M0 0 C13.9230568 11.36466145 20.62978656 27.92248527 22.62084961 45.52416992 C24.14858688 62.6650919 21.68912813 79.14404218 12.01953125 93.6484375 C10.67025026 95.59510103 10.67025026 95.59510103 10.01953125 97.6484375 C10.64898301 99.61280344 10.64898301 99.61280344 11.89453125 101.4609375 C14.04848003 105.42449631 14.67364201 108.0696622 14.01953125 112.6484375 C12.06947174 118.46574987 9.54544738 121.70912041 4.01953125 124.6484375 C-1.05585272 126.34023216 -5.30011311 126.21215617 -10.16796875 124.0234375 C-14.02197216 121.88730383 -16.04178184 119.68090626 -17.98046875 115.6484375 C-19.44553812 109.59281743 -19.16195399 105.0907584 -15.98046875 99.6484375 C-11.63646914 94.89072364 -7.25861738 93.19711604 -0.98046875 92.6484375 C1.77584319 92.77642545 4.29442386 93.15296343 7.01953125 93.6484375 C18.40533731 78.27759931 20.60797573 60.23539267 18.01953125 41.6484375 C15.39417483 27.33739136 9.73591932 11.85893514 -2.328125 2.90625 C-7.66498799 -0.54167694 -12.66337206 -2.63599757 -18.98046875 -3.3515625 C-19.69847656 -3.4340625 -20.41648437 -3.5165625 -21.15625 -3.6015625 C-28.00597796 -3.99088984 -35.24280483 -2.26610043 -40.71875 2.00390625 C-44.3151279 5.96098282 -45.87892684 10.4468809 -46.046875 15.7421875 C-45.44693693 26.06839426 -39.35223127 33.71701649 -33.2578125 41.63671875 C-22.15986968 56.313415 -16.38544726 71.40625268 -18.54296875 89.9609375 C-20.4109455 100.3359421 -24.6707348 109.26249289 -30.98046875 117.6484375 C-31.43035156 118.26332031 -31.88023437 118.87820313 -32.34375 119.51171875 C-40.11934481 129.39000962 -52.77474601 136.32517412 -65.125 138.3671875 C-83.74091317 140.20076582 -99.4418718 136.40104763 -114.5546875 125.04296875 C-115.98046875 123.6484375 -115.98046875 123.6484375 -116.98046875 120.6484375 C-113.1279484 121.21238669 -110.6412142 122.30665332 -107.41796875 124.4609375 C-90.69315357 134.76837915 -74.29424243 132.99407871 -55.98046875 128.6484375 C-55.98046875 126.9984375 -55.98046875 125.3484375 -55.98046875 123.6484375 C-67.86046875 123.6484375 -79.74046875 123.6484375 -91.98046875 123.6484375 C-91.98046875 114.7384375 -91.98046875 105.8284375 -91.98046875 96.6484375 C-80.10046875 96.6484375 -68.22046875 96.6484375 -55.98046875 96.6484375 C-55.98046875 85.0984375 -55.98046875 73.5484375 -55.98046875 61.6484375 C-47.07046875 61.6484375 -38.16046875 61.6484375 -28.98046875 61.6484375 C-28.98046875 73.1984375 -28.98046875 84.7484375 -28.98046875 96.6484375 C-28.32046875 96.6484375 -27.66046875 96.6484375 -26.98046875 96.6484375 C-23.35311708 78.96509812 -23.94657878 63.06194317 -33.98046875 47.6484375 C-35.82022166 45.08018714 -37.710398 42.55103435 -39.60546875 40.0234375 C-46.316773 31.05414525 -51.26340654 22.66951584 -49.609375 11.0390625 C-48.06029996 4.68881699 -45.23633383 0.53085636 -39.98046875 -3.3515625 C-27.58947991 -10.49615394 -11.24053832 -8.3038211 0 0 Z M-11.98046875 100.6484375 C-14.38944396 103.61950692 -14.94559746 105.3229721 -15.35546875 109.1484375 C-14.82702129 114.08061375 -13.15370067 116.37168511 -9.85546875 119.9609375 C-5.84671168 122.31390361 -2.52347115 122.32575786 2.01953125 121.6484375 C5.16800368 120.3479815 6.63693186 119.0970023 8.83203125 116.5234375 C10.50154979 112.48144524 10.83843173 108.95524741 10.01953125 104.6484375 C8.33994638 101.50254837 6.02105772 99.38289025 3.14453125 97.2734375 C-3.04941288 95.45168923 -7.10547358 96.54900974 -11.98046875 100.6484375 Z " fill="#078587" transform="translate(296.98046875,175.3515625)"/>
<path d="M0 0 C2.97 0 5.94 0 9 0 C9.33 2.64 9.66 5.28 10 8 C10.6813501 7.14734558 10.6813501 7.14734558 11.37646484 6.27746582 C14.92547522 2.24094187 17.51750844 -0.49445272 23.0390625 -0.90820312 C24.90152207 -0.90695315 26.76432271 -0.86271921 28.625 -0.78125 C29.61250244 -0.76993042 30.60000488 -0.75861084 31.61743164 -0.74694824 C34.74699514 -0.70244562 37.87184077 -0.60213611 41 -0.5 C43.13144387 -0.45983908 45.26296014 -0.4233429 47.39453125 -0.390625 C52.5979422 -0.30279936 57.79863408 -0.16923435 63 0 C63.495 0.99 63.495 0.99 64 2 C64.80630859 1.51466797 64.80630859 1.51466797 65.62890625 1.01953125 C68.53264949 -0.22903051 70.78278341 -0.30056538 73.9375 -0.3125 C74.95714844 -0.32925781 75.97679687 -0.34601563 77.02734375 -0.36328125 C80.36870105 0.04505808 82.26340652 1.08992831 85 3 C84.25 5.9375 84.25 5.9375 83 9 C78.73809893 10.76354527 75.25456799 9.20546093 71 8 C71 8.66 71 9.32 71 10 C71.59167969 10.09796875 72.18335938 10.1959375 72.79296875 10.296875 C77.82440698 11.24899055 81.31578146 12.20064963 85 16 C85.495 17.485 85.495 17.485 86 19 C86.48210937 17.96359375 86.96421875 16.9271875 87.4609375 15.859375 C88.09892902 14.48956968 88.73695148 13.11977877 89.375 11.75 C89.85066406 10.72712891 89.85066406 10.72712891 90.3359375 9.68359375 C90.6453125 9.01972656 90.9546875 8.35585938 91.2734375 7.671875 C91.55622559 7.0644043 91.83901367 6.45693359 92.13037109 5.83105469 C93.05973337 3.87422787 94.03119812 1.93760376 95 0 C97.97 0 100.94 0 104 0 C105.71612092 3.78710461 107.42489841 7.57740964 109.12695312 11.37084961 C109.70697617 12.66081696 110.28899489 13.94988891 110.87304688 15.23803711 C111.71230159 17.08996398 112.54432208 18.94499439 113.375 20.80078125 C114.12910156 22.47394409 114.12910156 22.47394409 114.8984375 24.1809082 C116 27 116 27 116 30 C112.7 30 109.4 30 106 30 C105.01 27.525 105.01 27.525 104 25 C100.7 24.67 97.4 24.34 94 24 C93.34 25.98 92.68 27.96 92 30 C89.03 30 86.06 30 83 30 C82.505 29.01 82.505 29.01 82 28 C81.45085937 28.32355469 80.90171875 28.64710938 80.3359375 28.98046875 C74.97949351 31.31831471 68.71066294 30.64887215 63.375 28.625 C61 27 61 27 60 25 C60.93446535 22.96855359 61.93224776 20.96466413 63 19 C64.051875 19.33 65.10375 19.66 66.1875 20 C69.4309443 20.85073949 71.71476009 21.09078383 75 21 C74.32453125 20.76925781 73.6490625 20.53851563 72.953125 20.30078125 C63.79338997 16.95191859 63.79338997 16.95191859 61 12 C61 11.01 61 10.02 61 9 C59.02 9 57.04 9 55 9 C55.00523682 9.60062256 55.01047363 10.20124512 55.01586914 10.82006836 C55.03658014 13.52586838 55.04964125 16.23165177 55.0625 18.9375 C55.07087891 19.88302734 55.07925781 20.82855469 55.08789062 21.80273438 C55.09111328 22.70185547 55.09433594 23.60097656 55.09765625 24.52734375 C55.10289307 25.35999756 55.10812988 26.19265137 55.11352539 27.05053711 C55 29 55 29 54 30 C51.03 30 48.06 30 45 30 C44.505 19.605 44.505 19.605 44 9 C41.69 9 39.38 9 37 9 C37 15.93 37 22.86 37 30 C19.37060988 30.96599398 19.37060988 30.96599398 15.47265625 28.21875 C14.07531037 26.19917631 13.05864346 24.20591755 12 22 C11.34 22 10.68 22 10 22 C9.67 24.64 9.34 27.28 9 30 C6.03 30 3.06 30 0 30 C-1.03351814 19.82382142 -0.85803148 10.16437295 0 0 Z M23.8359375 5.96875 C23.02382813 6.8040625 22.21171875 7.639375 21.375 8.5 C20.14910156 9.75296875 20.14910156 9.75296875 18.8984375 11.03125 C18.27195313 11.6809375 17.64546875 12.330625 17 13 C19.7465814 17.27245996 22.63992495 21.18586075 26 25 C26.33 25 26.66 25 27 25 C27.92092281 20.34462644 28.12205997 15.85314567 28.0625 11.125 C28.05798828 10.43664062 28.05347656 9.74828125 28.04882812 9.0390625 C28.03716336 7.35933665 28.01923271 5.67965625 28 4 C25.7589659 3.77568714 25.7589659 3.77568714 23.8359375 5.96875 Z M99 13 C98.67 13.99 98.34 14.98 98 16 C98.99 15.67 99.98 15.34 101 15 C100.34 14.34 99.68 13.68 99 13 Z " fill="#09686A" transform="translate(234,345)"/>
<path d="M0 0 C5.02941176 2.02941176 5.02941176 2.02941176 7 4 C7.66 2.68 8.32 1.36 9 0 C11.97 0 14.94 0 18 0 C18 3.3 18 6.6 18 10 C19.423125 9.9690625 19.423125 9.9690625 20.875 9.9375 C24 10 24 10 26 11 C26 7.37 26 3.74 26 0 C29.3 0 32.6 0 36 0 C36 9.9 36 19.8 36 30 C32.7 30 29.4 30 26 30 C26 26.37 26 22.74 26 19 C23.36 19 20.72 19 18 19 C18 22.63 18 26.26 18 30 C15.03 30 12.06 30 9 30 C8.34 28.68 7.68 27.36 7 26 C6.401875 26.474375 5.80375 26.94875 5.1875 27.4375 C0.77911843 30.58634398 -3.78506284 30.49113278 -9 30 C-14.35755096 28.07936852 -17.45837216 25.08325568 -20 20 C-20.41593526 15.48070346 -20.55848834 11.35212967 -18.8125 7.125 C-13.15139388 0.4878411 -8.41830164 -0.76061225 0 0 Z M8 5 C9 7 9 7 9 7 Z M1 12 C1 11.34 1 10.68 1 10 C-2.2304854 8.62371701 -2.2304854 8.62371701 -6 8 C-9.14744519 9.23453709 -9.14744519 9.23453709 -11 12 C-10.93113135 15.99438174 -10.8685771 18.1314229 -8 21 C-3.76036719 21.31404687 -0.63465602 21.32617985 3 19 C5.475 20.98 5.475 20.98 8 23 C8 17.72 8 12.44 8 7 C5.59244254 7 2.75431241 10.50696816 1 12 Z " fill="#0A686B" transform="translate(183,345)"/>
<path d="M0 0 C13.9230568 11.36466145 20.62978656 27.92248527 22.62084961 45.52416992 C24.14858688 62.6650919 21.68912813 79.14404218 12.01953125 93.6484375 C10.67025026 95.59510103 10.67025026 95.59510103 10.01953125 97.6484375 C10.64898301 99.61280344 10.64898301 99.61280344 11.89453125 101.4609375 C14.04848003 105.42449631 14.67364201 108.0696622 14.01953125 112.6484375 C12.06947174 118.46574987 9.54544738 121.70912041 4.01953125 124.6484375 C-1.05585272 126.34023216 -5.30011311 126.21215617 -10.16796875 124.0234375 C-14.02197216 121.88730383 -16.04178184 119.68090626 -17.98046875 115.6484375 C-19.44553812 109.59281743 -19.16195399 105.0907584 -15.98046875 99.6484375 C-11.63646914 94.89072364 -7.25861738 93.19711604 -0.98046875 92.6484375 C1.77584319 92.77642545 4.29442386 93.15296343 7.01953125 93.6484375 C18.40533731 78.27759931 20.60797573 60.23539267 18.01953125 41.6484375 C15.39417483 27.33739136 9.73591932 11.85893514 -2.328125 2.90625 C-7.66498799 -0.54167694 -12.66337206 -2.63599757 -18.98046875 -3.3515625 C-19.69847656 -3.4340625 -20.41648437 -3.5165625 -21.15625 -3.6015625 C-28.00597796 -3.99088984 -35.24280483 -2.26610043 -40.71875 2.00390625 C-44.3151279 5.96098282 -45.87892684 10.4468809 -46.046875 15.7421875 C-45.44693693 26.06839426 -39.35223127 33.71701649 -33.2578125 41.63671875 C-23.19365506 54.94626486 -19.42302831 66.28677509 -17.98046875 82.6484375 C-18.64046875 82.6484375 -19.30046875 82.6484375 -19.98046875 82.6484375 C-20.47546875 77.6984375 -20.47546875 77.6984375 -20.98046875 72.6484375 C-21.97046875 77.5984375 -21.97046875 77.5984375 -22.98046875 82.6484375 C-23.31046875 82.6484375 -23.64046875 82.6484375 -23.98046875 82.6484375 C-24.0784375 81.54886719 -24.17640625 80.44929688 -24.27734375 79.31640625 C-25.85383185 63.14273819 -30.63487607 51.51987546 -40.60546875 38.5859375 C-46.49026404 30.82870735 -50.33162232 23.60287779 -49.98046875 13.6484375 C-49.04641252 7.08054736 -46.830166 2.49020191 -41.87890625 -1.94921875 C-29.68676658 -10.95534661 -11.69579071 -8.64013368 0 0 Z M-11.98046875 100.6484375 C-14.38944396 103.61950692 -14.94559746 105.3229721 -15.35546875 109.1484375 C-14.82702129 114.08061375 -13.15370067 116.37168511 -9.85546875 119.9609375 C-5.84671168 122.31390361 -2.52347115 122.32575786 2.01953125 121.6484375 C5.16800368 120.3479815 6.63693186 119.0970023 8.83203125 116.5234375 C10.50154979 112.48144524 10.83843173 108.95524741 10.01953125 104.6484375 C8.33994638 101.50254837 6.02105772 99.38289025 3.14453125 97.2734375 C-3.04941288 95.45168923 -7.10547358 96.54900974 -11.98046875 100.6484375 Z " fill="#177B7F" transform="translate(296.98046875,175.3515625)"/>
<path d="M0 0 C0.99 0.33 1.98 0.66 3 1 C2.525625 1.66 2.05125 2.32 1.5625 3 C-0.32654421 6.62696489 -1.14682703 9.93520966 -1 14 C0.20898257 17.73838806 0.20898257 17.73838806 2 21 C2.66 22.32 3.32 23.64 4 25 C-1.28 25 -6.56 25 -12 25 C-12 36.22 -12 47.44 -12 59 C-20.25 59 -28.5 59 -37 59 C-37 52.73 -37 46.46 -37 40 C-34.710625 38.845 -32.42125 37.69 -30.0625 36.5 C-14.87930977 28.48134193 -5.37411225 16.31024277 0 0 Z " fill="#05676A" transform="translate(279,273)"/>
<path d="M0 0 C0.33 0 0.66 0 1 0 C1 8.25 1 16.5 1 25 C3.57554687 24.98839844 6.15109375 24.97679687 8.8046875 24.96484375 C11.29345578 24.95704963 13.78222271 24.95097488 16.27099609 24.94506836 C18.00342414 24.94003318 19.73584792 24.93320468 21.46826172 24.92456055 C23.95541433 24.91245935 26.44251087 24.90676362 28.9296875 24.90234375 C30.09538773 24.89460182 30.09538773 24.89460182 31.28463745 24.88670349 C36.77225659 24.88612829 36.77225659 24.88612829 39 26 C39 28.97 39 31.94 39 35 C39.99 35 40.98 35 42 35 C42 32.69 42 30.38 42 28 C42.99 28 43.98 28 45 28 C45 28.99 45 29.98 45 31 C45.598125 30.649375 46.19625 30.29875 46.8125 29.9375 C49 29 49 29 52 30 C37.94845249 40.56589231 21.99432451 43.96119987 4.7109375 41.5390625 C-5.52189925 39.24409911 -16.41027803 34.4233719 -24 27 C-24.33 26.01 -24.66 25.02 -25 24 C-21.14747965 24.56394919 -18.66074545 25.65821582 -15.4375 27.8125 C1.28731518 38.11994165 17.68622632 36.34564121 36 32 C36 30.35 36 28.7 36 27 C24.12 27 12.24 27 0 27 C0 18.09 0 9.18 0 0 Z " fill="#177D80" transform="translate(205,272)"/>
<path d="M0 0 C3.5420773 3.09931764 4.84372778 4.88656044 5.5 9.5625 C4.86922578 13.89907279 3.80650145 16.64512391 0.25 19.3125 C-3.0739743 20.32815881 -5.53686262 20.41796486 -9 20 C-11.97239241 18.21523759 -14.42604027 16.14791945 -16 13 C-16.04227317 8.62049912 -15.78687799 5.04917065 -13.125 1.5 C-8.92763339 -1.46284702 -4.79887119 -1.50314837 0 0 Z " fill="#096669" transform="translate(300,275)"/>
<path d="M0 0 C2.97 0 5.94 0 9 0 C9 9.9 9 19.8 9 30 C6.03 30 3.06 30 0 30 C0 20.1 0 10.2 0 0 Z " fill="#116769" transform="translate(222,345)"/>
<path d="M0 0 C0.99 0.33 1.98 0.66 3 1 C2.525625 1.66 2.05125 2.32 1.5625 3 C-0.32654421 6.62696489 -1.14682703 9.93520966 -1 14 C0.20898257 17.73838806 0.20898257 17.73838806 2 21 C2.66 22.32 3.32 23.64 4 25 C-1.28 25 -6.56 25 -12 25 C-12 36.22 -12 47.44 -12 59 C-20.25 59 -28.5 59 -37 59 C-37 52.73 -37 46.46 -37 40 C-35.02 39.34 -33.04 38.68 -31 38 C-31 38.66 -31 39.32 -31 40 C-32.98 40.495 -32.98 40.495 -35 41 C-35 46.28 -35 51.56 -35 57 C-28.07 57.33 -21.14 57.66 -14 58 C-14 48.43 -14 38.86 -14 29 C-14.66 29 -15.32 29 -16 29 C-14.34409692 25.31627979 -12.06170702 22.25605535 -9.6875 19 C-5.42876398 13.03263341 -2.48062417 6.9183237 0 0 Z " fill="#186364" transform="translate(279,273)"/>
<path d="M0 0 C1.32 0.33 2.64 0.66 4 1 C4.33 2.65 4.66 4.3 5 6 C5.33 5.01 5.66 4.02 6 3 C6 9.6 6 16.2 6 23 C-0.27 23 -6.54 23 -13 23 C-13 22.34 -13 21.68 -13 21 C-12.37351563 21.01160156 -11.74703125 21.02320313 -11.1015625 21.03515625 C-9.87566406 21.04869141 -9.87566406 21.04869141 -8.625 21.0625 C-7.40683594 21.07990234 -7.40683594 21.07990234 -6.1640625 21.09765625 C-3.95062858 21.14466334 -3.95062858 21.14466334 -2 20 C-0.32345271 20.27942455 1.34608154 20.60828247 3 21 C3 18.36 3 15.72 3 13 C1.35 13.33 -0.3 13.66 -2 14 C-2.33 14.99 -2.66 15.98 -3 17 C-3.87867729 13.26562152 -4.08912219 9.83225427 -4 6 C-3.34 6.66 -2.68 7.32 -2 8 C-2 7.01 -2 6.02 -2 5 C-1.37400383 3.31763529 -0.71247732 1.6476038 0 0 Z " fill="#055C60" transform="translate(265,352)"/>
<path d="M0 0 C1.65 0 3.3 0 5 0 C5 9.9 5 19.8 5 30 C1.7 30 -1.6 30 -5 30 C-5 26.37 -5 22.74 -5 19 C-7.64 19 -10.28 19 -13 19 C-13 22.63 -13 26.26 -13 30 C-15.97 30 -18.94 30 -22 30 C-22.33 29.34 -22.66 28.68 -23 28 C-20.36 28.33 -17.72 28.66 -15 29 C-14.67 25.37 -14.34 21.74 -14 18 C-11.03 17.34 -8.06 16.68 -5 16 C-4.67 14.35 -4.34 12.7 -4 11 C-1.525 11.495 -1.525 11.495 1 12 C1 14.64 1 17.28 1 20 C0.01 20.33 -0.98 20.66 -2 21 C-2.33 22.98 -2.66 24.96 -3 27 C-0.69 27.33 1.62 27.66 4 28 C3.67 19.09 3.34 10.18 3 1 C2.01 0.67 1.02 0.34 0 0 Z " fill="#136367" transform="translate(214,345)"/>
<path d="M0 0 C0.99 0.33 1.98 0.66 3 1 C2.2884375 1.99 2.2884375 1.99 1.5625 3 C-0.61438452 7.17961828 -1.81544644 11.38745504 -0.38671875 15.96484375 C0.36996902 17.66111539 1.18245446 19.3322071 2 21 C2 21.99 2 22.98 2 24 C-2.29 24 -6.58 24 -11 24 C-10.08366126 20.33464505 -9.17921825 18.47098735 -7.1875 15.375 C-4.14627727 10.45041764 -1.96497415 5.43257559 0 0 Z " fill="#056768" transform="translate(279,273)"/>
<path d="M0 0 C4.62 0.99 9.24 1.98 14 3 C13.67 3.99 13.34 4.98 13 6 C12.21625 5.95875 11.4325 5.9175 10.625 5.875 C7.83883881 5.71271266 7.83883881 5.71271266 6 8 C10.29 8 14.58 8 19 8 C13.82141467 11.883939 10.27572357 11.68924132 4 11 C-1.55319149 8.89361702 -1.55319149 8.89361702 -3 6 C-2.01 4.02 -1.02 2.04 0 0 Z " fill="#136669" transform="translate(297,364)"/>
<path d="M0 0 C3.12498063 -0.02895976 6.2499269 -0.04678483 9.375 -0.0625 C10.70917969 -0.07506836 10.70917969 -0.07506836 12.0703125 -0.08789062 C13.34648437 -0.09272461 13.34648437 -0.09272461 14.6484375 -0.09765625 C15.43395996 -0.10289307 16.21948242 -0.10812988 17.02880859 -0.11352539 C19 0 19 0 21 1 C21 2.98 21 4.96 21 7 C20.01 7.33 19.02 7.66 18 8 C17 7 17 7 16.9375 4.4375 C16.958125 3.633125 16.97875 2.82875 17 2 C15.35 2 13.7 2 12 2 C11.97301811 3.62490954 11.95361243 5.24994633 11.9375 6.875 C11.92589844 7.77992188 11.91429687 8.68484375 11.90234375 9.6171875 C11.83750743 12.0168585 11.83750743 12.0168585 13 14 C12.34 14.66 11.68 15.32 11 16 C8.76448241 12.64672361 8.82716472 12.09256343 9.375 8.3125 C9.54128906 7.10013672 9.54128906 7.10013672 9.7109375 5.86328125 C9.80632812 5.24839844 9.90171875 4.63351562 10 4 C8.02 5.32 6.04 6.64 4 8 C4.33 6.02 4.66 4.04 5 2 C1.39007621 2.65585189 1.39007621 2.65585189 -2 4 C-1.34 2.68 -0.68 1.36 0 0 Z " fill="#117073" transform="translate(252,345)"/>
<path d="M0 0 C0.99 1.32 1.98 2.64 3 4 C2.67 4.66 2.34 5.32 2 6 C2.66 6 3.32 6 4 6 C4.33 5.01 4.66 4.02 5 3 C8 4 8 4 10 6 C10.99 5.67 11.98 5.34 13 5 C13.33 4.34 13.66 3.68 14 3 C15.32 3.33 16.64 3.66 18 4 C18 5.32 18 6.64 18 8 C17.34 8 16.68 8 16 8 C16 8.66 16 9.32 16 10 C13.24921116 10.91692961 11.64051087 11.10886083 8.8125 11.0625 C6.9253125 11.0315625 6.9253125 11.0315625 5 11 C5 10.34 5 9.68 5 9 C3.68 9 2.36 9 1 9 C-0.9451 6.08235 -1.45276317 4.37462715 -2 1 C-1.34 0.67 -0.68 0.34 0 0 Z " fill="#06676A" transform="translate(169,363)"/>
<path d="M0 0 C1.423125 -0.061875 2.84625 -0.12375 4.3125 -0.1875 C5.51326172 -0.23970703 5.51326172 -0.23970703 6.73828125 -0.29296875 C9 0 9 0 10.8046875 1.28515625 C12 3 12 3 11.8125 6.625 C11.544375 7.73875 11.27625 8.8525 11 10 C7.57067929 11.71466036 3.78283935 11.05404056 0 11 C0 7.37 0 3.74 0 0 Z M4 3 C4 4.65 4 6.3 4 8 C5.32 8 6.64 8 8 8 C7.67 6.35 7.34 4.7 7 3 C6.01 3 5.02 3 4 3 Z " fill="#136063" transform="translate(205,387)"/>
<path d="M0 0 C6.8359375 -0.29296875 6.8359375 -0.29296875 9 0 C11.47779788 3.71669681 10.80738905 4.78363494 10 9 C10.33 9.66 10.66 10.32 11 11 C6.125 10.125 6.125 10.125 5 9 C4.67 9.66 4.34 10.32 4 11 C2.68 11 1.36 11 0 11 C0 7.37 0 3.74 0 0 Z M4 3 C4 3.66 4 4.32 4 5 C4.99 5 5.98 5 7 5 C7 4.34 7 3.68 7 3 C6.01 3 5.02 3 4 3 Z " fill="#0F5D63" transform="translate(235,387)"/>
<path d="M0 0 C1.65 0 3.3 0 5 0 C4.67 1.98 4.34 3.96 4 6 C3.34 6 2.68 6 2 6 C2.01160156 6.58265625 2.02320313 7.1653125 2.03515625 7.765625 C2.10993846 14.56012255 1.65055041 21.23892255 1 28 C3.31 28 5.62 28 8 28 C8 25.69 8 23.38 8 21 C9.65 20.67 11.3 20.34 13 20 C12.67 20.66 12.34 21.32 12 22 C11.34 22 10.68 22 10 22 C9.67 24.64 9.34 27.28 9 30 C6.03 30 3.06 30 0 30 C-1.03351814 19.82382142 -0.85803148 10.16437295 0 0 Z " fill="#1D696B" transform="translate(234,345)"/>
<path d="M0 0 C2.97 0 5.94 0 9 0 C8.814375 1.0725 8.62875 2.145 8.4375 3.25 C7.76775571 7.07210322 7.76775571 7.07210322 9 11 C6.03 11 3.06 11 0 11 C0 7.37 0 3.74 0 0 Z " fill="#0D646A" transform="translate(253,387)"/>
<path d="M0 0 C-0.33 0.99 -0.66 1.98 -1 3 C-3.97 2.505 -3.97 2.505 -7 2 C-7 3.65 -7 5.3 -7 7 C-5.02 6.67 -3.04 6.34 -1 6 C-1 7.32 -1 8.64 -1 10 C-6.28301887 11.32075472 -6.28301887 11.32075472 -9.375 9.9375 C-11 8 -11 8 -11.375 5 C-11 2 -11 2 -9 -1 C-5.49594785 -2.570782 -3.35616605 -1.58485619 0 0 Z " fill="#10595F" transform="translate(280,388)"/>
<path d="M0 0 C0.66 0 1.32 0 2 0 C2 0.66 2 1.32 2 2 C2.99 2.33 3.98 2.66 5 3 C3.68 3 2.36 3 1 3 C1.00523682 3.60062256 1.01047363 4.20124512 1.01586914 4.82006836 C1.03658014 7.52586838 1.04964125 10.23165177 1.0625 12.9375 C1.07087891 13.88302734 1.07925781 14.82855469 1.08789062 15.80273438 C1.09111328 16.70185547 1.09433594 17.60097656 1.09765625 18.52734375 C1.10289307 19.35999756 1.10812988 20.19265137 1.11352539 21.05053711 C1 23 1 23 0 24 C-2.97 24 -5.94 24 -9 24 C-9 17.4 -9 10.8 -9 4 C-8.67 4 -8.34 4 -8 4 C-8 9.94 -8 15.88 -8 22 C-5.69 22 -3.38 22 -1 22 C-1.01160156 20.99839844 -1.02320313 19.99679687 -1.03515625 18.96484375 C-1.04454398 17.62239772 -1.05364312 16.27994964 -1.0625 14.9375 C-1.07410156 13.62652344 -1.08570313 12.31554687 -1.09765625 10.96484375 C-1.00452335 7.1836481 -0.61448726 3.72079293 0 0 Z " fill="#206161" transform="translate(288,351)"/>
<path d="M0 0 C0 1.66666667 0 3.33333333 0 5 C-14.78132118 5.3690205 -14.78132118 5.3690205 -21 3 C-20.67 2.34 -20.34 1.68 -20 1 C-17.3046875 0.5859375 -17.3046875 0.5859375 -13.875 0.375 C-12.70324219 0.30152344 -11.53148437 0.22804688 -10.32421875 0.15234375 C-6.87002548 -0.00595653 -3.45596343 -0.08037124 0 0 Z " fill="#088588" transform="translate(226,308)"/>
<path d="M0 0 C2.97 0 5.94 0 9 0 C12.07692308 6.4 12.07692308 6.4 11.6875 9.4375 C11.460625 9.953125 11.23375 10.46875 11 11 C10.34 10.67 9.68 10.34 9 10 C9 9.34 9 8.68 9 8 C8.67794257 5.66508361 8.34541851 3.33157492 8 1 C5.36 1.33 2.72 1.66 0 2 C0 1.34 0 0.68 0 0 Z M2 10 C3.98 10 5.96 10 8 10 C8 10.99 8 11.98 8 13 C7.360625 13.12375 6.72125 13.2475 6.0625 13.375 C5.381875 13.58125 4.70125 13.7875 4 14 C3.67 14.66 3.34 15.32 3 16 C4.32 15.34 5.64 14.68 7 14 C7 15.32 7 16.64 7 18 C5.02 18.33 3.04 18.66 1 19 C-0.25541557 15.23375329 0.62938042 13.62811066 2 10 Z " fill="#116C6D" transform="translate(329,345)"/>
<path d="M0 0 C0.77690546 2.2609941 1.18358294 3.51115705 0.328125 5.7890625 C-0.20554687 6.69785156 -0.20554687 6.69785156 -0.75 7.625 C-4.08022999 13.83292002 -6.83444942 19.97418351 -5 27 C-6.98 27 -8.96 27 -11 27 C-10.814375 26.4225 -10.62875 25.845 -10.4375 25.25 C-9.95976454 22.79307475 -10.24270636 21.35602466 -11 19 C-10.3709375 18.92910156 -9.741875 18.85820312 -9.09375 18.78515625 C-8.05734375 18.39650391 -8.05734375 18.39650391 -7 18 C-5.99622409 15.95428481 -5.99622409 15.95428481 -5.5 13.4375 C-4.2214139 8.52801194 -2.39717219 4.46369994 0 0 Z " fill="#126A6F" transform="translate(328,347)"/>
<path d="M0 0 C0.33 0 0.66 0 1 0 C1 6.6 1 13.2 1 20 C-5.27 20 -11.54 20 -18 20 C-18 19.34 -18 18.68 -18 18 C-17.37351563 18.01160156 -16.74703125 18.02320313 -16.1015625 18.03515625 C-14.87566406 18.04869141 -14.87566406 18.04869141 -13.625 18.0625 C-12.40683594 18.07990234 -12.40683594 18.07990234 -11.1640625 18.09765625 C-8.95062858 18.14466334 -8.95062858 18.14466334 -7 17 C-5.32345271 17.27942455 -3.65391846 17.60828247 -2 18 C-1.90912109 16.42798828 -1.90912109 16.42798828 -1.81640625 14.82421875 C-1.73198262 13.44529952 -1.64733553 12.06639395 -1.5625 10.6875 C-1.52318359 9.99720703 -1.48386719 9.30691406 -1.44335938 8.59570312 C-1.25072585 5.52838465 -0.97677283 2.93031848 0 0 Z " fill="#1E5E63" transform="translate(270,355)"/>
<path d="M0 0 C2.07190739 3.82781467 2.6396562 7.46942683 3.125 11.75 C3.21136719 12.42804688 3.29773438 13.10609375 3.38671875 13.8046875 C3.9569011 18.56525762 4.23864364 23.20637558 4 28 C3.34 28.66 2.68 29.32 2 30 C-0.86848843 27.13151157 -0.0708382 19.49780207 -0.09765625 15.625 C-0.09110022 13.74997484 -0.07931 11.87496127 -0.0625 10 C-0.05798828 9.03449219 -0.05347656 8.06898438 -0.04882812 7.07421875 C-0.03715417 4.71607911 -0.02078021 2.35807398 0 0 Z " fill="#12777C" transform="translate(316,207)"/>
<path d="M0 0 C3.56169096 1.27203249 5.36156805 1.98431281 7.375 5.1875 C7.58125 5.785625 7.7875 6.38375 8 7 C7.01 7.66 6.02 8.32 5 9 C4.34 8.67 3.68 8.34 3 8 C2.67 6.02 2.34 4.04 2 2 C-2.95 2.33 -7.9 2.66 -13 3 C-13.33 4.32 -13.66 5.64 -14 7 C-15.32 6.67 -16.64 6.34 -18 6 C-11.72112022 0.67660192 -8.39296293 -0.72086798 0 0 Z " fill="#196767" transform="translate(183,345)"/>
<path d="M0 0 C3.63 0 7.26 0 11 0 C10.67 0.99 10.34 1.98 10 3 C9.01 3 8.02 3 7 3 C7 5.64 7 8.28 7 11 C5.68 11 4.36 11 3 11 C3 8.36 3 5.72 3 3 C2.01 3 1.02 3 0 3 C0 2.01 0 1.02 0 0 Z " fill="#126165" transform="translate(286,387)"/>
<path d="M0 0 C1.65 0 3.3 0 5 0 C5 9.9 5 19.8 5 30 C1.7 30 -1.6 30 -5 30 C-5 27.36 -5 24.72 -5 22 C-4.67 22 -4.34 22 -4 22 C-3.67 23.65 -3.34 25.3 -3 27 C-0.69 27.33 1.62 27.66 4 28 C3.67 19.09 3.34 10.18 3 1 C2.01 0.67 1.02 0.34 0 0 Z " fill="#2C6166" transform="translate(214,345)"/>
<path d="M0 0 C0.99 0.33 1.98 0.66 3 1 C2.34 1 1.68 1 1 1 C1.25716797 1.73669922 1.25716797 1.73669922 1.51953125 2.48828125 C2.20617351 6.07780136 1.92249815 9.56595321 1.6875 13.1875 C1.65205078 13.92419922 1.61660156 14.66089844 1.58007812 15.41992188 C1.46503123 17.28642902 1.24097482 19.14554163 1 21 C0.34 21.33 -0.32 21.66 -1 22 C-1.02887814 18.52085059 -1.04675687 15.04173169 -1.0625 11.5625 C-1.07087891 10.56927734 -1.07925781 9.57605469 -1.08789062 8.55273438 C-1.09111328 7.60849609 -1.09433594 6.66425781 -1.09765625 5.69140625 C-1.10289307 4.81685791 -1.10812988 3.94230957 -1.11352539 3.04125977 C-1 1 -1 1 0 0 Z " fill="#246A70" transform="translate(192,345)"/>
<path d="M0 0 C0.79364181 2.84549626 1.13396009 5.49414212 1.3125 8.4375 C1.73405201 12.70922707 3.02702928 14.83522472 6 18 C6 18.66 6 19.32 6 20 C7.32 20 8.64 20 10 20 C10 20.66 10 21.32 10 22 C7.34303932 21.84817368 5.55765476 21.52675976 3.58984375 19.66796875 C0.1730437 15.5737856 -1.14041417 13.31102331 -1.125 8.0625 C-1.12757813 7.18722656 -1.13015625 6.31195313 -1.1328125 5.41015625 C-1 3 -1 3 0 0 Z " fill="#276871" transform="translate(164,352)"/>
<path d="M0 0 C11.70615034 -0.55353075 11.70615034 -0.55353075 16 3 C15.25 5.9375 15.25 5.9375 14 9 C11.875 9.875 11.875 9.875 10 10 C10 9.34 10 8.68 10 8 C10.99 8 11.98 8 13 8 C13.33 6.35 13.66 4.7 14 3 C7.07 2.505 7.07 2.505 0 2 C0 1.34 0 0.68 0 0 Z " fill="#236B69" transform="translate(303,345)"/>
<path d="M0 0 C1.32 0 2.64 0 4 0 C4 3.63 4 7.26 4 11 C2.68 11 1.36 11 0 11 C0 7.37 0 3.74 0 0 Z " fill="#0B575E" transform="translate(224,387)"/>
<path d="M0 0 C5.94 0 11.88 0 18 0 C18 0.33 18 0.66 18 1 C17.37351562 1.02578125 16.74703125 1.0515625 16.1015625 1.078125 C15.28429687 1.13484375 14.46703125 1.1915625 13.625 1.25 C12.81289063 1.29640625 12.00078125 1.3428125 11.1640625 1.390625 C8.83095499 1.77498032 8.83095499 1.77498032 7.8984375 3.921875 C7.45371094 4.95054687 7.45371094 4.95054687 7 6 C6.01 6.66 5.02 7.32 4 8 C4.33 6.02 4.66 4.04 5 2 C1.39007621 2.65585189 1.39007621 2.65585189 -2 4 C-1.34 2.68 -0.68 1.36 0 0 Z " fill="#256A6D" transform="translate(252,345)"/>
<path d="M0 0 C0.99 0.33 1.98 0.66 3 1 C2.525625 1.639375 2.05125 2.27875 1.5625 2.9375 C-0.47031387 6.92181519 -0.7210529 10.58494074 -1 15 C-1.62390625 15.11214844 -2.2478125 15.22429687 -2.890625 15.33984375 C-5.28581702 15.85026199 -5.28581702 15.85026199 -6.75 18.5625 C-7.1625 19.366875 -7.575 20.17125 -8 21 C-8.66 20.67 -9.32 20.34 -10 20 C-9.61328125 19.39414062 -9.2265625 18.78828125 -8.828125 18.1640625 C-5.18587271 12.30400313 -2.3460976 6.48626985 0 0 Z " fill="#115F63" transform="translate(279,273)"/>
<path d="M0 0 C1.98 1.65 3.96 3.3 6 5 C4.987668 7.93576279 4.03642058 8.97512741 1.4375 10.75 C-2.84985708 12.30903894 -6.49360134 12.27038392 -11 12 C-11 11.67 -11 11.34 -11 11 C-5.555 10.505 -5.555 10.505 0 10 C0 9.34 0 8.68 0 8 C0.66 7.67 1.32 7.34 2 7 C1.65555119 4.52733235 1.65555119 4.52733235 1 2 C0.34 1.67 -0.32 1.34 -1 1 C-0.67 0.67 -0.34 0.34 0 0 Z " fill="#216467" transform="translate(185,363)"/>
<path d="M0 0 C0.33 0 0.66 0 1 0 C1 2.64 1 5.28 1 8 C2.32 8 3.64 8 5 8 C4.67 10.31 4.34 12.62 4 15 C3.38125 14.505 2.7625 14.01 2.125 13.5 C0.16119096 11.80777227 0.16119096 11.80777227 -2 12 C-1.34 8.04 -0.68 4.08 0 0 Z " fill="#158182" transform="translate(272,260)"/>
<path d="M0 0 C8.58 0 17.16 0 26 0 C26 1.65 26 3.3 26 5 C25.67 4.34 25.34 3.68 25 3 C21.72509004 2.122419 18.51454636 1.8361408 15.13671875 1.68359375 C13.80737305 1.62075195 13.80737305 1.62075195 12.45117188 1.55664062 C11.53916016 1.51732422 10.62714844 1.47800781 9.6875 1.4375 C8.75615234 1.39431641 7.82480469 1.35113281 6.86523438 1.30664062 C4.57695546 1.20102775 2.28857628 1.09892248 0 1 C0 0.67 0 0.34 0 0 Z " fill="#236667" transform="translate(271,345)"/>
<path d="M0 0 C2 2.0625 2 2.0625 3 4 C2.29875 3.67 1.5975 3.34 0.875 3 C-3.55736783 1.45830684 -6.60852075 1.33450993 -10.875 3.375 C-11.57625 3.91125 -12.2775 4.4475 -13 5 C-13 5.66 -13 6.32 -13 7 C-13.66 7 -14.32 7 -15 7 C-14.4376049 3.73810844 -13.5859495 2.08865152 -11 0 C-7.11331839 -1.29556054 -3.93854133 -1.09950945 0 0 Z " fill="#166162" transform="translate(300,275)"/>
<path d="M0 0 C1.32 0 2.64 0 4 0 C6.41847197 2.50484597 7 3.46013806 7 7 C4.6875 7.3125 4.6875 7.3125 2 7 C0.125 4.625 0.125 4.625 -1 2 C-0.67 1.34 -0.34 0.68 0 0 Z " fill="#05686B" transform="translate(181,347)"/>
<path d="M0 0 C-3.2238521 2.89535533 -5.32640704 3.38781228 -9.625 3.3125 C-10.58664062 3.30863281 -11.54828125 3.30476563 -12.5390625 3.30078125 C-15 3 -15 3 -17 1 C-5.47835991 -0.14806378 -5.47835991 -0.14806378 0 0 Z " fill="#1D6363" transform="translate(316,372)"/>
<path d="M0 0 C1.08398438 3.76318359 1.08398438 3.76318359 0.328125 5.89453125 C-0.02765625 6.52746094 -0.3834375 7.16039062 -0.75 7.8125 C-2.7287433 11.47454923 -4.39923013 15.15815231 -6 19 C-7.12642186 15.62073443 -6.96344705 15.27071722 -5.56640625 12.20703125 C-5.0878418 11.1387207 -5.0878418 11.1387207 -4.59960938 10.04882812 C-4.25736328 9.31083984 -3.91511719 8.57285156 -3.5625 7.8125 C-3.22412109 7.06291016 -2.88574219 6.31332031 -2.53710938 5.54101562 C-1.7000589 3.69007302 -0.85114596 1.84450334 0 0 Z " fill="#1E6E6B" transform="translate(328,347)"/>
<path d="M0 0 C0.66 0 1.32 0 2 0 C3.80230168 3.82989106 4.19622241 6.78121808 4 11 C3.01 11.33 2.02 11.66 1 12 C0.01751476 7.9472484 -0.08159574 4.16138263 0 0 Z " fill="#0F8282" transform="translate(271,234)"/>
<path d="M0 0 C0.99 0.495 0.99 0.495 2 1 C6.65275976 1.3052622 6.65275976 1.3052622 11 0 C11.66 0.66 12.32 1.32 13 2 C12.01 2 11.02 2 10 2 C9.67 2.99 9.34 3.98 9 5 C8.34 5.66 7.68 6.32 7 7 C6.01 6.34 5.02 5.68 4 5 C4 4.34 4 3.68 4 3 C2.68 2.67 1.36 2.34 0 2 C0 1.34 0 0.68 0 0 Z " fill="#186B71" transform="translate(173,364)"/>
<path d="M0 0 C2.97 0 5.94 0 9 0 C12.125 6.625 12.125 6.625 11 10 C11 9.34 11 8.68 11 8 C10.34 8 9.68 8 9 8 C8.67 5.69 8.34 3.38 8 1 C5.36 1.33 2.72 1.66 0 2 C0 1.34 0 0.68 0 0 Z " fill="#246066" transform="translate(329,345)"/>
<path d="M0 0 C0 0.66 0 1.32 0 2 C-3.78187881 3.83691257 -5.94568308 4.15837626 -10 3 C-9.34 2.67 -8.68 2.34 -8 2 C-8 1.34 -8 0.68 -8 0 C-4.71023192 -1.09658936 -3.28696233 -0.79953138 0 0 Z " fill="#06878A" transform="translate(241,307)"/>
<path d="M0 0 C2.31 0.66 4.62 1.32 7 2 C7 2.66 7 3.32 7 4 C7.66 4.33 8.32 4.66 9 5 C7.3125 5.6875 7.3125 5.6875 5 6 C2.25 4.75 2.25 4.75 0 3 C0 2.01 0 1.02 0 0 Z " fill="#0D7F7E" transform="translate(283,294)"/>
<path d="M0 0 C0.66 0 1.32 0 2 0 C2.1953125 6.0546875 2.1953125 6.0546875 2 8 C1.34 8.66 0.68 9.32 0 10 C-1 9 -1 9 -1.1328125 7.1875 C-1.13023437 6.465625 -1.12765625 5.74375 -1.125 5 C-1.12757813 4.278125 -1.13015625 3.55625 -1.1328125 2.8125 C-1 1 -1 1 0 0 Z " fill="#0A527F" transform="translate(318,227)"/>
<path d="M0 0 C-0.33 0.99 -0.66 1.98 -1 3 C-2.98 3.33 -4.96 3.66 -7 4 C-7 3.01 -7 2.02 -7 1 C-3.375 -1.125 -3.375 -1.125 0 0 Z " fill="#125659" transform="translate(280,395)"/>
<path d="M0 0 C0.66 0.66 1.32 1.32 2 2 C1.67 2.66 1.34 3.32 1 4 C-0.175625 3.9690625 -0.175625 3.9690625 -1.375 3.9375 C-3.98114961 3.81315937 -3.98114961 3.81315937 -6 5 C-6.66 4.67 -7.32 4.34 -8 4 C-7.67 3.01 -7.34 2.02 -7 1 C-6.401875 1.20625 -5.80375 1.4125 -5.1875 1.625 C-2.71549154 2.30671915 -2.71549154 2.30671915 0 0 Z " fill="#0C6B73" transform="translate(267,369)"/>
<path d="M0 0 C0 2 0 4 0 6 C-2.62187494 4.95125002 -3.79371361 4.35068687 -5.25 1.875 C-5.4975 1.25625 -5.745 0.6375 -6 0 C-3 -1 -3 -1 0 0 Z " fill="#156668" transform="translate(253,367)"/>
<path d="M0 0 C1.70884005 1.62339805 3.37446717 3.29319053 5 5 C5 5.66 5 6.32 5 7 C6.32 7 7.64 7 9 7 C9 7.66 9 8.32 9 9 C5.85669777 8.6507442 4.20508548 8.16074267 1.6875 6.1875 C0 4 0 4 0 0 Z " fill="#1B6163" transform="translate(165,365)"/>
<path d="M0 0 C0.66 0.33 1.32 0.66 2 1 C1.01 1.66 0.02 2.32 -1 3 C-1 3.99 -1 4.98 -1 6 C-2.5 7.6875 -2.5 7.6875 -4 9 C-4 8.01 -4 7.02 -4 6 C-4.66 5.67 -5.32 5.34 -6 5 C-4.02 3.35 -2.04 1.7 0 0 Z " fill="#147677" transform="translate(287,270)"/>
<path d="M0 0 C6.75 2.75 6.75 2.75 9 5 C9 5.99 9 6.98 9 8 C8.34 8 7.68 8 7 8 C6.773125 7.195625 6.54625 6.39125 6.3125 5.5625 C5.879375 4.716875 5.44625 3.87125 5 3 C2.45224694 2.10613836 2.45224694 2.10613836 0 2 C0 1.34 0 0.68 0 0 Z " fill="#276F6F" transform="translate(310,356)"/>
<path d="M0 0 C0.66 0 1.32 0 2 0 C2.33 3.63 2.66 7.26 3 11 C2.01 10.67 1.02 10.34 0 10 C-1.125 3.375 -1.125 3.375 0 0 Z " fill="#20696D" transform="translate(241,345)"/>
<path d="M0 0 C-0.99 0.495 -0.99 0.495 -2 1 C-2.33 1.99 -2.66 2.98 -3 4 C-2.34 4.33 -1.68 4.66 -1 5 C-1.66 5.66 -2.32 6.32 -3 7 C-3.33 5.68 -3.66 4.36 -4 3 C-4.66 3 -5.32 3 -6 3 C-6 2.01 -6 1.02 -6 0 C-3.50907189 -1.24546405 -2.58919267 -0.7767578 0 0 Z " fill="#0B5F62" transform="translate(320,365)"/>
<path d="M0 0 C0.33 0 0.66 0 1 0 C1.125 5.75 1.125 5.75 0 8 C-2.31 7.67 -4.62 7.34 -7 7 C-6.67 6.34 -6.34 5.68 -6 5 C-4.35 5 -2.7 5 -1 5 C-0.67 3.35 -0.34 1.7 0 0 Z " fill="#0E585A" transform="translate(210,350)"/>
<path d="M0 0 C0.33 0.66 0.66 1.32 1 2 C-0.30406884 4.01920337 -1.63823419 6.01924973 -3 8 C-3.33 8 -3.66 8 -4 8 C-4 5.69 -4 3.38 -4 1 C-2.68 0.67 -1.36 0.34 0 0 Z " fill="#167D7E" transform="translate(270,284)"/>
<path d="M0 0 C-0.33 2.64 -0.66 5.28 -1 8 C-1.66 8 -2.32 8 -3 8 C-3.33 5.69 -3.66 3.38 -4 1 C-2 0 -2 0 0 0 Z " fill="#146C6C" transform="translate(173,354)"/>
<path d="M0 0 C0.99 0.33 1.98 0.66 3 1 C2.54625 1.7425 2.0925 2.485 1.625 3.25 C0.31359204 5.46930578 -0.88280803 7.67967822 -2 10 C-3.39195915 5.82412255 -1.82323219 3.86525224 0 0 Z " fill="#1D6F70" transform="translate(279,273)"/>
<path d="M0 0 C1.98 0 3.96 0 6 0 C6 0.99 6 1.98 6 3 C4.02 3 2.04 3 0 3 C0 2.01 0 1.02 0 0 Z " fill="#066368" transform="translate(236,387)"/>
<path d="M0 0 C0.99 0 1.98 0 3 0 C3 0.66 3 1.32 3 2 C4.65 2 6.3 2 8 2 C8.33 2.99 8.66 3.98 9 5 C2.25 3.375 2.25 3.375 0 0 Z " fill="#1F6A6B" transform="translate(297,359)"/>
<path d="M0 0 C1.98 0 3.96 0 6 0 C6 0.99 6 1.98 6 3 C4.02 3 2.04 3 0 3 C0 2.01 0 1.02 0 0 Z " fill="#0A5962" transform="translate(256,395)"/>
<path d="M0 0 C1.5625 1.25 1.5625 1.25 3 3 C2.6875 5.1875 2.6875 5.1875 2 7 C1.01 7 0.02 7 -1 7 C-0.67 4.69 -0.34 2.38 0 0 Z " fill="#046569" transform="translate(206,390)"/>
<path d="M0 0 C1.77706209 2.66559313 2.87548273 5.0280615 4 8 C2.02 7.34 0.04 6.68 -2 6 C-1.34 5.67 -0.68 5.34 0 5 C-0.33 4.01 -0.66 3.02 -1 2 C-0.67 1.34 -0.34 0.68 0 0 Z " fill="#126970" transform="translate(277,288)"/>
<path d="" fill="#FFFFFF" transform="translate(0,0)"/>
<path d="" fill="#FFFFFF" transform="translate(0,0)"/>
<path d="" fill="#FFFFFF" transform="translate(0,0)"/>
<path d="" fill="#FFFFFF" transform="translate(0,0)"/>
<path d="" fill="#FFFFFF" transform="translate(0,0)"/>
<path d="" fill="#FFFFFF" transform="translate(0,0)"/>
<path d="" fill="#FFFFFF" transform="translate(0,0)"/>
<path d="" fill="#FFFFFF" transform="translate(0,0)"/>
<path d="" fill="#FFFFFF" transform="translate(0,0)"/>
<path d="" fill="#FFFFFF" transform="translate(0,0)"/>
<path d="" fill="#FFFFFF" transform="translate(0,0)"/>
<path d="" fill="#FFFFFF" transform="translate(0,0)"/>
<path d="" fill="#FFFFFF" transform="translate(0,0)"/>
<path d="" fill="#FFFFFF" transform="translate(0,0)"/>
<path d="" fill="#FFFFFF" transform="translate(0,0)"/>
<path d="" fill="#FFFFFF" transform="translate(0,0)"/>
<path d="" fill="#FFFFFF" transform="translate(0,0)"/>
<path d="" fill="#FFFFFF" transform="translate(0,0)"/>
<path d="" fill="#FFFFFF" transform="translate(0,0)"/>
<path d="" fill="#FFFFFF" transform="translate(0,0)"/>
<path d="" fill="#FFFFFF" transform="translate(0,0)"/>
<path d="" fill="#FFFFFF" transform="translate(0,0)"/>
<path d="" fill="#FFFFFF" transform="translate(0,0)"/>
<path d="" fill="#FFFFFF" transform="translate(0,0)"/>
<path d="" fill="#FFFFFF" transform="translate(0,0)"/>
<path d="" fill="#FFFFFF" transform="translate(0,0)"/>
<path d="" fill="#FFFFFF" transform="translate(0,0)"/>
<path d="" fill="#FFFFFF" transform="translate(0,0)"/>
<path d="" fill="#FFFFFF" transform="translate(0,0)"/>
<path d="" fill="#FFFFFF" transform="translate(0,0)"/>
<path d="" fill="#FFFFFF" transform="translate(0,0)"/>
<path d="" fill="#FFFFFF" transform="translate(0,0)"/>
<path d="" fill="#FFFFFF" transform="translate(0,0)"/>
<path d="" fill="#FFFFFF" transform="translate(0,0)"/>
<path d="" fill="#FFFFFF" transform="translate(0,0)"/>
<path d="" fill="#FFFFFF" transform="translate(0,0)"/>
<path d="" fill="#FFFFFF" transform="translate(0,0)"/>
<path d="" fill="#FFFFFF" transform="translate(0,0)"/>
<path d="" fill="#FFFFFF" transform="translate(0,0)"/>
<path d="" fill="#FFFFFF" transform="translate(0,0)"/>
<path d="" fill="#FFFFFF" transform="translate(0,0)"/>
<path d="" fill="#FFFFFF" transform="translate(0,0)"/>
<path d="" fill="#FFFFFF" transform="translate(0,0)"/>
<path d="" fill="#FFFFFF" transform="translate(0,0)"/>
<path d="" fill="#FFFFFF" transform="translate(0,0)"/>
<path d="" fill="#FFFFFF" transform="translate(0,0)"/>
<path d="" fill="#FFFFFF" transform="translate(0,0)"/>
<path d="" fill="#FFFFFF" transform="translate(0,0)"/>
<path d="" fill="#FFFFFF" transform="translate(0,0)"/>
<path d="" fill="#FFFFFF" transform="translate(0,0)"/>
<path d="" fill="#FFFFFF" transform="translate(0,0)"/>
<path d="" fill="#FFFFFF" transform="translate(0,0)"/>
<path d="" fill="#FFFFFF" transform="translate(0,0)"/>
<path d="" fill="#FFFFFF" transform="translate(0,0)"/>
<path d="" fill="#FFFFFF" transform="translate(0,0)"/>
<path d="" fill="#FFFFFF" transform="translate(0,0)"/>
<path d="" fill="#FFFFFF" transform="translate(0,0)"/>
<path d="" fill="#FFFFFF" transform="translate(0,0)"/>
<path d="" fill="#FFFFFF" transform="translate(0,0)"/>
<path d="" fill="#FFFFFF" transform="translate(0,0)"/>
<path d="" fill="#FFFFFF" transform="translate(0,0)"/>
<path d="" fill="#FFFFFF" transform="translate(0,0)"/>
<path d="" fill="#FFFFFF" transform="translate(0,0)"/>
<path d="" fill="#FFFFFF" transform="translate(0,0)"/>
<path d="" fill="#FFFFFF" transform="translate(0,0)"/>
<path d="" fill="#FFFFFF" transform="translate(0,0)"/>
<path d="" fill="#FFFFFF" transform="translate(0,0)"/>
<path d="" fill="#FFFFFF" transform="translate(0,0)"/>
<path d="" fill="#FFFFFF" transform="translate(0,0)"/>
<path d="" fill="#FFFFFF" transform="translate(0,0)"/>
<path d="" fill="#FFFFFF" transform="translate(0,0)"/>
<path d="" fill="#FFFFFF" transform="translate(0,0)"/>
<path d="" fill="#FFFFFF" transform="translate(0,0)"/>
<path d="" fill="#FFFFFF" transform="translate(0,0)"/>
<path d="" fill="#FFFFFF" transform="translate(0,0)"/>
</svg>
