<?xml version="1.0" standalone="no"?>
<!DOCTYPE svg PUBLIC "-//W3C//DTD SVG 20010904//EN"
 "http://www.w3.org/TR/2001/REC-SVG-20010904/DTD/svg10.dtd">
<svg version="1.0" xmlns="http://www.w3.org/2000/svg"
 width="550.000000pt" height="159.000000pt" viewBox="0 0 550.000000 159.000000"
 preserveAspectRatio="xMidYMid meet">

<g transform="translate(0.000000,159.000000) scale(0.100000,-0.100000)"
fill="#000000" stroke="none">
<path d="M286 1215 c-96 -34 -156 -116 -164 -225 -3 -53 0 -76 16 -113 l21
-46 -76 -3 c-50 -2 -78 -7 -81 -15 -3 -10 19 -13 90 -13 l93 0 207 -207 208
-208 208 208 207 207 93 0 c75 0 92 3 92 15 0 12 -15 15 -76 15 -69 0 -75 2
-69 18 50 120 39 211 -36 297 -70 79 -195 108 -291 65 -44 -19 -118 -84 -118
-103 0 -6 -16 8 -35 30 -70 82 -188 114 -289 78z m155 -25 c42 -12 114 -71
135 -111 17 -34 40 -38 49 -9 19 60 123 130 195 130 169 0 282 -177 209 -327
l-21 -43 -107 0 -108 0 -24 -52 -24 -51 -6 39 c-4 21 -10 89 -14 150 -11 173
-26 178 -70 22 l-28 -98 -62 0 -62 0 -13 -42 -13 -43 -26 110 c-17 72 -31 110
-40 110 -8 0 -22 -29 -35 -70 l-22 -70 -79 0 -80 0 -23 45 c-19 37 -23 56 -19
105 2 34 11 74 20 91 49 95 162 143 268 114z m267 -470 c4 -36 12 -65 17 -65
6 0 28 32 50 72 l40 72 74 1 73 0 -140 -147 c-77 -82 -158 -165 -179 -185
l-39 -38 -184 185 -185 185 72 0 72 0 14 47 c8 25 16 42 19 37 3 -5 16 -53 28
-106 26 -118 41 -125 68 -35 l20 62 63 5 64 5 15 60 15 59 8 -74 c4 -41 11
-104 15 -140z"/>
<path d="M2210 785 l0 -415 50 0 50 0 0 162 c0 142 2 167 20 204 45 91 189
101 231 15 8 -17 14 -90 17 -204 l4 -177 44 0 44 0 0 200 c0 180 -2 205 -20
240 -29 57 -72 84 -146 88 -76 5 -130 -11 -166 -51 l-28 -29 0 191 0 191 -50
0 -50 0 0 -415z"/>
<path d="M3090 785 l0 -415 50 0 50 0 0 130 c0 72 3 130 8 129 4 0 58 -59 121
-130 l113 -129 70 0 70 0 -93 101 c-52 55 -110 119 -130 142 l-36 41 121 118
121 117 -70 1 -70 0 -112 -112 -113 -113 0 268 0 267 -50 0 -50 0 0 -415z"/>
<path d="M1669 1147 c-163 -56 -260 -201 -261 -387 0 -96 20 -162 74 -243 43
-64 136 -133 205 -153 79 -23 221 -15 284 15 48 23 129 86 129 101 0 5 -19 22
-41 39 l-41 30 -37 -36 c-51 -49 -94 -66 -173 -65 -90 1 -155 30 -213 94 -100
111 -102 304 -5 426 53 66 113 95 205 100 76 4 144 -18 181 -59 9 -10 21 -19
26 -19 13 0 78 51 78 61 0 17 -57 62 -110 87 -80 38 -209 42 -301 9z"/>
<path d="M2832 1127 c-44 -47 -13 -117 52 -117 41 0 69 29 69 70 0 65 -76 95
-121 47z"/>
<path d="M3671 1124 c-12 -15 -21 -34 -21 -44 0 -34 39 -70 75 -70 36 0 75 36
75 70 0 34 -39 70 -75 70 -24 0 -39 -7 -54 -26z"/>
<path d="M3970 965 l0 -75 -55 0 -55 0 0 -40 0 -40 55 0 55 0 0 -152 c1 -84 5
-172 9 -196 16 -82 84 -121 184 -105 l52 8 3 47 3 48 -33 -6 c-18 -4 -35 -7
-38 -6 -72 1 -81 28 -78 215 l3 142 73 3 72 3 0 39 0 40 -75 0 -75 0 0 75 0
75 -50 0 -50 0 0 -75z"/>
<path d="M4413 879 c-53 -26 -86 -77 -87 -134 -2 -82 32 -113 172 -154 112
-34 141 -79 80 -124 -47 -35 -130 -24 -183 23 -19 18 -21 17 -58 -14 l-39 -32
40 -36 c53 -48 128 -66 213 -50 111 21 161 71 161 164 0 85 -44 125 -169 153
-78 17 -113 41 -113 75 0 59 96 81 162 36 31 -21 37 -22 54 -9 10 8 28 21 38
29 19 13 19 14 0 35 -55 61 -187 80 -271 38z"/>
<path d="M4937 885 c-21 -8 -52 -24 -68 -36 l-31 -22 30 -29 30 -30 46 27 c37
21 60 28 102 27 80 -1 118 -30 125 -97 l4 -30 -108 -7 c-122 -7 -182 -29 -222
-82 -55 -72 -36 -179 41 -227 31 -19 52 -23 109 -23 76 0 103 10 153 57 l32
31 0 -37 0 -37 45 0 45 0 0 188 c-1 241 -14 281 -105 323 -49 23 -171 24 -228
4z m237 -307 c-11 -71 -32 -105 -78 -128 -50 -24 -96 -26 -136 -5 -53 28 -65
77 -27 120 31 36 89 54 175 55 l72 0 -6 -42z"/>
<path d="M2830 630 l0 -260 50 0 50 0 0 260 0 260 -50 0 -50 0 0 -260z"/>
<path d="M3680 630 l0 -260 50 0 50 0 0 260 0 260 -50 0 -50 0 0 -260z"/>
</g>
</svg>
